<svg width="2500" height="1750" viewBox="0 0 2500 1750" fill="none" xmlns="http://www.w3.org/2000/svg">
<path d="M1527.6 259.5L1626.55 355L1726 893.35H793.151L1527.6 259.5Z" fill="#FFCF2D"/>
<path d="M1627.4 354.25L1528.15 258.45L1544.75 241.2C1569.2 215.8 1613.25 218.7 1638.65 243.1C1664.05 267.55 1668.5 311.6 1644.05 337L1627.4 354.25Z" fill="white" stroke="#FFCF2D" stroke-width="6" stroke-miterlimit="10" stroke-linecap="round"/>
<path d="M1644 337.001L1544.7 241.2" stroke="#FFCF2D" stroke-width="6" stroke-miterlimit="10" stroke-linecap="round"/>
<path d="M1644.1 247.45L1655.2 238.95C1670.1 227.55 1691.5 230.55 1702.65 245.7L1975.45 577.8L1835.8 889.251" stroke="#3FB1B5" stroke-width="6" stroke-miterlimit="10" stroke-linecap="round"/>
<path d="M1971 594.75C1979.45 594.75 1986.3 587.9 1986.3 579.45C1986.3 571 1979.45 564.15 1971 564.15C1962.55 564.15 1955.7 571 1955.7 579.45C1955.7 587.9 1962.55 594.75 1971 594.75Z" fill="white" stroke="#FFCF2D" stroke-width="6" stroke-miterlimit="10" stroke-linecap="round"/>
<path d="M1797 854.45H1871.55C1893 854.45 1910.35 871.85 1910.35 893.25V894.35H1758.15V893.25C1758.2 871.85 1775.55 854.45 1797 854.45Z" fill="white" stroke="#FFCF2D" stroke-width="6" stroke-miterlimit="10" stroke-linecap="round"/>
<path d="M1435.85 780.8H963.9C946.15 780.8 931.8 766.45 931.8 748.7V418.6C931.8 400.85 946.15 386.5 963.9 386.5H1435.85C1453.6 386.5 1467.95 400.85 1467.95 418.6V748.65C1468 766.4 1453.6 780.8 1435.85 780.8Z" fill="white" stroke="#3FB1B5" stroke-width="6" stroke-miterlimit="10" stroke-linecap="round"/>
<path d="M1436.15 750.1H968.75C961.8 750.1 956.2 744.45 956.2 737.55V421.75C956.2 414.8 961.85 409.2 968.75 409.2H1436.15C1443.1 409.2 1448.7 414.85 1448.7 421.75V737.5C1448.75 744.45 1443.1 750.1 1436.15 750.1Z" fill="#66B0F0" stroke="#66B0F0" stroke-width="6" stroke-miterlimit="10" stroke-linejoin="round"/>
<path d="M985.5 438.7H978.1C975.7 438.7 973.7 436.75 973.7 434.3V426.9C973.7 424.5 975.65 422.5 978.1 422.5H985.5C987.9 422.5 989.9 424.45 989.9 426.9V434.3C989.85 436.75 987.9 438.7 985.5 438.7Z" stroke="white" stroke-width="6" stroke-miterlimit="10" stroke-linecap="round"/>
<path d="M1019.15 438.7H1011.75C1009.35 438.7 1007.35 436.75 1007.35 434.3V426.9C1007.35 424.5 1009.3 422.5 1011.75 422.5H1019.15C1021.55 422.5 1023.55 424.45 1023.55 426.9V434.3C1023.55 436.75 1021.55 438.7 1019.15 438.7Z" stroke="white" stroke-width="6" stroke-miterlimit="10" stroke-linecap="round"/>
<path d="M1052.8 438.7H1045.4C1043 438.7 1041 436.75 1041 434.3V426.9C1041 424.5 1042.95 422.5 1045.4 422.5H1052.8C1055.2 422.5 1057.2 424.45 1057.2 426.9V434.3C1057.2 436.75 1055.25 438.7 1052.8 438.7Z" stroke="white" stroke-width="6" stroke-miterlimit="10" stroke-linecap="round"/>
<path d="M1299.5 893.35H1116.3L1152.25 780.8H1263.5L1299.5 893.35Z" fill="white" stroke="#3FB1B5" stroke-width="6" stroke-miterlimit="10" stroke-linecap="round"/>
<path d="M1130.7 848.3L1152.25 780.8H1263.5L1130.7 848.3Z" fill="#3FB1B5"/>
<path d="M1408.95 512.75H1319.9C1311.55 512.75 1304.8 506 1304.8 497.65V440.15C1304.8 431.8 1311.55 425.05 1319.9 425.05H1408.95C1417.3 425.05 1424.05 431.8 1424.05 440.15V497.65C1424.05 506 1417.3 512.75 1408.95 512.75Z" stroke="white" stroke-width="6" stroke-miterlimit="10" stroke-linecap="round"/>
<path d="M1330.25 445.55H1398.2" stroke="white" stroke-width="6" stroke-miterlimit="10" stroke-linecap="round"/>
<path d="M1330.25 461.05H1398.2" stroke="white" stroke-width="6" stroke-miterlimit="10" stroke-linecap="round"/>
<path d="M1330.25 476.55H1398.2" stroke="white" stroke-width="6" stroke-miterlimit="10" stroke-linecap="round"/>
<path d="M1330.25 492.05H1398.2" stroke="white" stroke-width="6" stroke-miterlimit="10" stroke-linecap="round"/>
<path d="M1433.55 750.1H1079.6L1058.85 779.85C1035.4 813.45 985.849 813.95 961.749 780.8L835.349 606.95C840.649 613.55 864.899 606.2 887.999 591C911.449 575.55 926.599 556.1 921.849 548.9L1009.5 660.6L1036.35 613.2C1043.7 600.65 1055.9 591.65 1070.1 588.35L1161.45 569H1240.2L1327 588.15C1342.1 591.6 1354.9 601.45 1362.15 615.1L1433.55 750.1Z" fill="white" stroke="#3FB1B5" stroke-width="6" stroke-miterlimit="10"/>
<path d="M1336.4 748.05L1311.25 698.4" stroke="#3FB1B5" stroke-width="6" stroke-miterlimit="10" stroke-linecap="round"/>
<path d="M1077.6 752.7L1102.5 703.55" stroke="#3FB1B5" stroke-width="6" stroke-miterlimit="10" stroke-linecap="round"/>
<path d="M975.399 617.25L1032.45 690.2" stroke="#3FB1B5" stroke-width="6" stroke-miterlimit="10" stroke-linecap="round"/>
<path d="M1210.65 593L1231.65 618.55L1278.65 578.65" stroke="#3FB1B5" stroke-width="6" stroke-miterlimit="10" stroke-linecap="round"/>
<path d="M1194.6 593.5L1174.2 619.55L1122.55 578.65" stroke="#3FB1B5" stroke-width="6" stroke-miterlimit="10" stroke-linecap="round"/>
<path d="M939.25 571.25C944 578.5 928.8 598.2 905.2 613.85C882 629.25 857.4 636.65 852.05 630" stroke="#3FB1B5" stroke-width="6" stroke-miterlimit="10" stroke-linecap="round"/>
<path d="M923.55 583.9C926.671 583.9 929.201 581.37 929.201 578.25C929.201 575.13 926.671 572.6 923.55 572.6C920.429 572.6 917.899 575.13 917.899 578.25C917.899 581.37 920.429 583.9 923.55 583.9Z" stroke="#3FB1B5" stroke-width="6" stroke-miterlimit="10" stroke-linecap="round"/>
<path d="M1202.55 619.4C1205.67 619.4 1208.2 616.87 1208.2 613.75C1208.2 610.63 1205.67 608.1 1202.55 608.1C1199.43 608.1 1196.9 610.63 1196.9 613.75C1196.9 616.87 1199.43 619.4 1202.55 619.4Z" stroke="#3FB1B5" stroke-width="6" stroke-miterlimit="10" stroke-linecap="round"/>
<path d="M1202.55 664.9C1205.67 664.9 1208.2 662.37 1208.2 659.25C1208.2 656.13 1205.67 653.6 1202.55 653.6C1199.43 653.6 1196.9 656.13 1196.9 659.25C1196.9 662.37 1199.43 664.9 1202.55 664.9Z" stroke="#3FB1B5" stroke-width="6" stroke-miterlimit="10" stroke-linecap="round"/>
<path d="M1057.05 782.25L1079.6 750.1V782.25H1057.05Z" fill="#3FB1B5"/>
<path d="M887.45 589.5C864.35 604.7 840.1 612.05 834.801 605.45C834.701 605.35 834.651 605.25 834.551 605.1C833.451 603.45 833.551 601.2 834.551 598.45C838 589.4 852.25 575.4 870.35 563.5C884.75 554 898.95 547.4 908.8 545.35C914.5 544.2 918.75 544.55 920.8 546.75L921.3 547.35C926 554.55 910.9 574.05 887.45 589.5Z" fill="#FE5244"/>
<path d="M887.45 589.5C874.3 598.15 860.75 604.3 850.55 606.7L804.9 542.3C798.55 533.3 800.65 520.85 809.7 514.5L850.8 485.6L827.5 445.95C824.1 440.2 826.05 432.75 831.85 429.4C833.75 428.3 835.8 427.8 837.85 427.8C841.8 427.8 845.7 429.75 848 433.35L920.85 546.65L921.35 547.45C926 554.55 910.9 574.05 887.45 589.5Z" fill="#E57281"/>
<path d="M850.7 486.05L876.15 525.5C878.5 529.2 877.45 534.1 873.75 536.5L868.1 540.2C864.4 542.65 859.4 541.6 857 537.9L832.95 501.9" stroke="#9A3B82" stroke-width="6" stroke-miterlimit="10" stroke-linecap="round"/>
<path d="M856.9 537.8C859.35 541.55 858.25 546.6 854.5 549L849.35 552.25C845.65 554.6 840.75 553.55 838.35 549.9" stroke="#9A3B82" stroke-width="6" stroke-miterlimit="10" stroke-linecap="round"/>
<path d="M814.7 514.6L838.25 549.6C840.7 553.35 839.65 558.4 835.8 560.8L831 563.45C827.4 565.75 822.65 564.8 820.15 561.3L806.5 542.05" stroke="#9A3B82" stroke-width="6" stroke-miterlimit="10" stroke-linecap="round"/>
<path d="M903.85 520.25L891.9 501.7C887.95 495.55 879.7 493.85 873.65 497.95L844 518.05C844 518.05 852.6 533.5 873.5 521.25L880.5 532.4C866.2 541.45 862.1 560.5 871.4 574.65L903.85 520.25Z" fill="#E57281"/>
<path d="M902.301 520.75L890.35 502.2C886.4 496.05 878.15 494.35 872.1 498.45L844 518.05C844 518.05 852.6 533.5 873.5 521.25L880.5 532.4C866.2 541.45 862.1 560.5 871.4 574.65" stroke="#9A3B82" stroke-width="6" stroke-miterlimit="10" stroke-linecap="round"/>
<path d="M887.45 589.5C874.3 598.15 860.75 604.3 850.55 606.7L839.2 590.7C845.55 582.4 856.9 572.4 870.35 563.55C884.75 554.05 898.95 547.45 908.8 545.4C914.499 544.25 918.749 544.6 920.799 546.8L921.299 547.4C921.349 547.5 921.399 547.55 921.449 547.65C921.499 547.7 921.499 547.75 921.549 547.85C921.599 547.95 921.649 548 921.699 548.1C925.099 555.75 910.15 574.5 887.45 589.5Z" fill="#9A3B82"/>
<path d="M1240.15 525V568.95C1240.15 581.7 1222.45 592 1200.7 592C1178.9 592 1161.25 581.7 1161.25 568.95V525H1240.15Z" fill="#E57281"/>
<path d="M1172.8 585.25C1165.65 581.1 1161.2 575.3 1161.2 568.95V525H1240.15V537.2C1240.15 549.85 1232.45 561.2 1220.75 565.95L1172.8 585.25Z" fill="#9A3B82"/>
<path d="M1262.15 522.4V523.15C1262.15 530.75 1256 536.9 1248.4 536.9H1239.35C1236.3 549.2 1225.2 558.35 1211.9 558.35H1189.5C1176.25 558.35 1165.1 549.25 1162.1 536.9H1153.05C1145.45 536.9 1139.3 530.75 1139.3 523.15V522.4C1139.3 514.8 1145.45 508.65 1153.05 508.65H1161.25V497.8C1161.25 486.2 1169.8 476.6 1180.95 475C1183.4 479.1 1190.8 488.9 1205.9 488.35C1213 488.1 1219.6 486.75 1225.05 485.15C1231.6 483.25 1238.15 487.25 1239.8 493.5C1240.05 494.9 1240.2 496.3 1240.2 497.75V508.6H1248.4C1255.95 508.6 1262.15 514.8 1262.15 522.4Z" fill="#E57281"/>
<path d="M1246.45 508.6H1240.15V496.55C1240.15 495.5 1240 494.45 1239.75 493.5C1238.1 487.25 1231.55 483.25 1225 485.15C1219.55 486.75 1213 488.1 1205.85 488.35C1190.75 488.9 1183.35 479.1 1180.9 475C1169.75 476.6 1161.2 486.2 1161.2 497.8V508.65H1153.35C1153.35 508.65 1144.35 476.1 1151.1 466.9C1157.75 457.85 1165.75 461.8 1165.75 461.8C1165.75 461.8 1160.95 434.7 1187.75 435.2C1214.5 435.7 1249.3 466.75 1251.85 472.45C1255.85 481.2 1246.45 508.6 1246.45 508.6Z" fill="#9A3B82"/>
<path d="M1243.2 524.95C1243.2 519.6 1247.55 515.3 1252.85 515.3" stroke="#9A3B82" stroke-width="5" stroke-miterlimit="10" stroke-linecap="round"/>
<path d="M1158.3 524.95C1158.3 519.6 1153.95 515.3 1148.65 515.3" stroke="#9A3B82" stroke-width="5" stroke-miterlimit="10" stroke-linecap="round"/>
<path d="M1227.55 497.8C1227.55 497.8 1220.45 492.6 1211.4 496.35" stroke="#9A3B82" stroke-width="5" stroke-miterlimit="10" stroke-linecap="round"/>
<path d="M1173.35 497.8C1173.35 497.8 1180.45 492.6 1189.5 496.35" stroke="#9A3B82" stroke-width="5" stroke-miterlimit="10" stroke-linecap="round"/>
<path d="M1213.15 534.7C1213.15 534.7 1209.3 543 1197.5 538.65" stroke="#9A3B82" stroke-width="5" stroke-miterlimit="10" stroke-linecap="round"/>
<path d="M1196.95 530.4C1200 530.599 1204.65 530.4 1204.65 530.4" stroke="#9A3B82" stroke-width="5" stroke-miterlimit="10" stroke-linecap="round"/>
<path d="M1219.5 518.65C1220.88 518.65 1222 516.77 1222 514.45C1222 512.13 1220.88 510.25 1219.5 510.25C1218.12 510.25 1217 512.13 1217 514.45C1217 516.77 1218.12 518.65 1219.5 518.65Z" fill="#9A3B82"/>
<path d="M1183.65 518.65C1185.03 518.65 1186.15 516.77 1186.15 514.45C1186.15 512.13 1185.03 510.25 1183.65 510.25C1182.27 510.25 1181.15 512.13 1181.15 514.45C1181.15 516.77 1182.27 518.65 1183.65 518.65Z" fill="#9A3B82"/>
<path d="M1189.6 528.6H1173.85C1170.8 528.6 1168.35 526.15 1168.35 523.1V507.35C1168.35 504.3 1170.8 501.85 1173.85 501.85H1189.6C1192.65 501.85 1195.1 504.3 1195.1 507.35V523.1C1195.15 526.1 1192.65 528.6 1189.6 528.6Z" stroke="white" stroke-width="5" stroke-miterlimit="10"/>
<path d="M1228.15 528.6H1212.4C1209.35 528.6 1206.9 526.15 1206.9 523.1V507.35C1206.9 504.3 1209.35 501.85 1212.4 501.85H1228.15C1231.2 501.85 1233.65 504.3 1233.65 507.35V523.1C1233.65 526.1 1231.2 528.6 1228.15 528.6Z" stroke="white" stroke-width="5" stroke-miterlimit="10"/>
<path d="M1195.15 512.25H1206.9" stroke="white" stroke-width="5" stroke-miterlimit="10"/>
<path d="M1963.2 894.35H635.85" stroke="#3FB1B5" stroke-width="6" stroke-miterlimit="10" stroke-linecap="round"/>
<path d="M1063.2 903.1V1520.4H1028.35V1402.9C1028.35 1391.95 1019.45 1383.05 1008.5 1383.05H759.05C748.1 1383.05 739.2 1391.95 739.2 1402.9V1520.4H704.35V903.1H1063.2Z" fill="white" stroke="#3FB1B5" stroke-width="6" stroke-miterlimit="10" stroke-linecap="round"/>
<path d="M1064.25 903.1V1066.9L704.35 1363.25L704.4 903.1H1064.25Z" fill="#D0F0E4"/>
<path d="M1028.35 950.1V1062.05C1028.35 1072.45 1019.95 1080.85 1009.55 1080.85H758.049C747.649 1080.85 739.249 1072.45 739.249 1062.05V950.1C739.249 939.7 747.649 931.3 758.049 931.3H1009.55C1019.95 931.3 1028.35 939.7 1028.35 950.1Z" stroke="#3FB1B5" stroke-width="6" stroke-miterlimit="10" stroke-linecap="round"/>
<path d="M947.75 1165.65H823.95L818.8 1130.2H942.65L947.75 1165.65Z" fill="#FFCF2D"/>
<path d="M1013.8 1109.75C998.35 1109.75 985.85 1122.25 985.85 1137.7V1165.65H880.5V1137.7C880.5 1122.25 893 1109.75 908.45 1109.75H1013.8Z" fill="white" stroke="#3FB1B5" stroke-width="6" stroke-miterlimit="10" stroke-linecap="round"/>
<path d="M1040.05 1130.2H934.7C931.45 1118.4 920.6 1109.75 907.75 1109.75H1013.1C1025.95 1109.75 1036.75 1118.4 1040.05 1130.2Z" fill="white" stroke="#3FB1B5" stroke-width="6" stroke-miterlimit="10" stroke-linecap="round"/>
<path d="M1028.35 1184.45V1296.4C1028.35 1306.8 1019.95 1315.2 1009.55 1315.2H758.049C747.649 1315.2 739.249 1306.8 739.249 1296.4V1184.45C739.249 1174.05 747.649 1165.65 758.049 1165.65H1009.55C1019.95 1165.65 1028.35 1174.05 1028.35 1184.45Z" stroke="#3FB1B5" stroke-width="6" stroke-miterlimit="10" stroke-linecap="round"/>
<path d="M832.3 1003.85C832.3 994.95 839.5 987.7 848.45 987.7H919.2C928.1 987.7 935.35 994.9 935.35 1003.85" stroke="#3FB1B5" stroke-width="6" stroke-miterlimit="10" stroke-linecap="round"/>
<path d="M832.3 1238.2C832.3 1229.3 839.5 1222.05 848.45 1222.05H919.2C928.1 1222.05 935.35 1229.25 935.35 1238.2" stroke="#3FB1B5" stroke-width="6" stroke-miterlimit="10" stroke-linecap="round"/>
<path d="M1910.35 903.1H1873.2V1521.75H1910.35V903.1Z" fill="white" stroke="#3FB1B5" stroke-width="6" stroke-miterlimit="10" stroke-linecap="round"/>
<path d="M1279 1521.75H2054.3" stroke="#3FB1B5" stroke-width="6" stroke-miterlimit="10" stroke-linecap="round"/>
<path d="M809.85 809.5H787.4C787.4 809.5 755.35 675.95 727.2 671.6C699.05 667.25 697.6 718.65 697.6 718.65C697.6 718.65 698.1 640.5 768.45 651.2C838.85 661.9 809.85 809.5 809.85 809.5Z" fill="white" stroke="#3FB1B5" stroke-width="6" stroke-miterlimit="10" stroke-linecap="round"/>
<path d="M732.949 654.6C732.949 654.6 797.1 630.9 800 807.5" stroke="#3FB1B5" stroke-width="6" stroke-miterlimit="10" stroke-linecap="round"/>
<path d="M871 807.5H765.55V893.35H871V807.5Z" fill="#FE5244"/>
<path d="M893.2 850.45C886.5 853.35 878.5 853 871.05 849.75C865.55 847.35 860.35 843.4 856.15 838C850.35 830.5 846.45 820.25 846.45 807.5C846.45 776.6 821.85 757.2 811.75 798.1C811.05 800.95 810.4 804.05 809.85 807.5V807.4V807.2C809.85 807.1 809.85 806.95 809.9 806.8V806.6C810.1 804.05 810.85 796.5 813.15 787.4C814.85 780.65 817.4 773.15 821.2 766.2C823.1 762.75 825.3 759.45 827.9 756.5C834.6 748.8 843.8 743.4 856.35 743.4C879.45 743.4 896.35 770.6 902.8 797.7C908.45 821.25 906.15 844.8 893.2 850.45Z" fill="white" stroke="#3FB1B5" stroke-width="6" stroke-miterlimit="10" stroke-linecap="round"/>
<path d="M827.95 756.5C827.95 756.5 874.25 723.55 887.85 851.4" stroke="#3FB1B5" stroke-width="6" stroke-miterlimit="10" stroke-linecap="round"/>
<path d="M696.1 718.65C696.1 726.9 695.15 758.45 725.25 759.9C755.35 761.35 758.35 715.9 758.35 715.9C758.35 715.9 743.55 675.7 727.2 671.6C699.55 664.65 696.1 718.65 696.1 718.65Z" fill="#3FB1B5"/>
<path d="M846.45 807.5H809.85C818.3 754.55 846.45 774.45 846.45 807.5Z" fill="#3FB1B5"/>
<path opacity="0.4" d="M1468 418.6V748.65C1468 766.4 1453.6 780.75 1435.9 780.75H1058.15C1034.45 813.4 985.6 813.55 961.7 780.75L961.65 780.7C952.15 780.05 943.75 775.2 938.35 768.05L947.05 760.55L1169.05 568.95L1380.45 386.5H1435.9C1453.6 386.5 1468 400.9 1468 418.6Z" fill="white"/>
<path opacity="0.4" d="M893.2 851.95C886.55 854.95 878.5 854.5 871.05 851.25V893.35H793.2L856.2 839L871.1 826.15L882.45 816.35L904.4 797.7C910.8 825 907.25 845.5 893.2 851.95Z" fill="white"/>
<path d="M1556.15 1074.1V1352.4H1491.85L1450.9 1238.05L1392.25 1074.1H1556.15Z" fill="#A0505A"/>
<path d="M1392.25 1074.1H1556.15V1163.45L1411.75 1128.55L1392.25 1074.1Z" fill="#73325A"/>
<path d="M1556.15 1238.05V1352.4H1491.85L1450.9 1238.05C1450.9 1238.05 1484.05 1256.35 1556.15 1238.05Z" stroke="white" stroke-width="6" stroke-miterlimit="10" stroke-linecap="round"/>
<path d="M1484.35 1264.9C1488.38 1264.9 1491.65 1261.63 1491.65 1257.6C1491.65 1253.57 1488.38 1250.3 1484.35 1250.3C1480.32 1250.3 1477.05 1253.57 1477.05 1257.6C1477.05 1261.63 1480.32 1264.9 1484.35 1264.9Z" stroke="white" stroke-width="6" stroke-miterlimit="10" stroke-linecap="round"/>
<path d="M1519.15 1288.45C1523.18 1288.45 1526.45 1285.18 1526.45 1281.15C1526.45 1277.12 1523.18 1273.85 1519.15 1273.85C1515.12 1273.85 1511.85 1277.12 1511.85 1281.15C1511.85 1285.18 1515.12 1288.45 1519.15 1288.45Z" stroke="white" stroke-width="6" stroke-miterlimit="10" stroke-linecap="round"/>
<path d="M1545.05 1262.3C1549.08 1262.3 1552.35 1259.03 1552.35 1255C1552.35 1250.97 1549.08 1247.7 1545.05 1247.7C1541.02 1247.7 1537.75 1250.97 1537.75 1255C1537.75 1259.03 1541.02 1262.3 1545.05 1262.3Z" stroke="white" stroke-width="6" stroke-miterlimit="10" stroke-linecap="round"/>
<path d="M1534.8 1315.85C1538.83 1315.85 1542.1 1312.58 1542.1 1308.55C1542.1 1304.52 1538.83 1301.25 1534.8 1301.25C1530.77 1301.25 1527.5 1304.52 1527.5 1308.55C1527.5 1312.58 1530.77 1315.85 1534.8 1315.85Z" stroke="white" stroke-width="6" stroke-miterlimit="10" stroke-linecap="round"/>
<path d="M1491.65 1302.55C1495.68 1302.55 1498.95 1299.28 1498.95 1295.25C1498.95 1291.22 1495.68 1287.95 1491.65 1287.95C1487.62 1287.95 1484.35 1291.22 1484.35 1295.25C1484.35 1299.28 1487.62 1302.55 1491.65 1302.55Z" stroke="white" stroke-width="6" stroke-miterlimit="10" stroke-linecap="round"/>
<path d="M1503.55 1342.55C1507.58 1342.55 1510.85 1339.28 1510.85 1335.25C1510.85 1331.22 1507.58 1327.95 1503.55 1327.95C1499.52 1327.95 1496.25 1331.22 1496.25 1335.25C1496.25 1339.28 1499.52 1342.55 1503.55 1342.55Z" stroke="white" stroke-width="6" stroke-miterlimit="10" stroke-linecap="round"/>
<path d="M1586.55 1404.3L1542.45 1495.85C1536.2 1510.6 1521.75 1520.2 1505.7 1520.2H1449.45C1435.05 1520.2 1426.3 1505.6 1431.8 1492.3L1488.35 1355.9C1491.5 1347.6 1497.05 1340.7 1504 1335.85C1511 1331 1519.4 1328.25 1528.25 1328.25C1540.55 1328.25 1552.75 1336.6 1560.85 1345.85L1580.45 1367C1589.5 1377.3 1591.85 1391.75 1586.55 1404.3Z" fill="#66B0F0"/>
<path d="M1586.55 1404.3L1542.45 1495.85C1536.2 1510.6 1521.75 1520.2 1505.7 1520.2H1445.9C1440.35 1520.2 1437.2 1516.75 1435.35 1512H1448.65C1464.7 1512 1479.15 1502.4 1485.4 1487.65L1536.25 1381.6C1541 1371.7 1551.05 1365.35 1562.05 1365.35C1576.4 1365.35 1587.3 1375.85 1589.3 1389.15C1589.5 1394.25 1588.6 1399.4 1586.55 1404.3Z" fill="white" stroke="#66B0F0" stroke-width="6" stroke-miterlimit="10" stroke-linejoin="round"/>
<path d="M1576.4 1362.6C1571.1 1359.7 1564.7 1357.6 1559.1 1357.6C1548.35 1357.6 1538.4 1363.85 1533.75 1373.55L1481.1 1483.35C1474.4 1499.2 1458.9 1509.45 1441.65 1509.45H1431.95C1431.45 1508.5 1431.1 1507.5 1430.75 1506.45H1441.65C1457.7 1506.45 1472.1 1496.9 1478.35 1482.15L1478.4 1482.1L1531.1 1372.25C1536.25 1361.5 1547.25 1354.6 1559.15 1354.6C1562.95 1354.6 1567.5 1355.85 1571.4 1357.2L1576.4 1362.6Z" fill="white"/>
<path d="M1392.25 1074.1L1379.7 1238.05L1374.1 1311.5C1374.1 1311.5 1337.55 1352.2 1295.95 1327.1L1276.7 1238.1L1232.65 1034.45C1220.75 979.4 1258.35 925.85 1314.2 918.4L1392.25 1074.1Z" fill="#A0505A"/>
<path d="M1379.7 1238.05L1374.1 1313.5C1374.1 1313.5 1337.55 1354.2 1295.95 1329.1L1276.7 1238.1C1325.05 1252.6 1379.7 1238.05 1379.7 1238.05Z" stroke="white" stroke-width="6" stroke-miterlimit="10" stroke-linecap="round"/>
<path d="M1322.25 1283.4C1326.28 1283.4 1329.55 1280.13 1329.55 1276.1C1329.55 1272.07 1326.28 1268.8 1322.25 1268.8C1318.22 1268.8 1314.95 1272.07 1314.95 1276.1C1314.95 1280.13 1318.22 1283.4 1322.25 1283.4Z" stroke="white" stroke-width="6" stroke-miterlimit="10" stroke-linecap="round"/>
<path d="M1368.65 1272.2C1372.68 1272.2 1375.95 1268.93 1375.95 1264.9C1375.95 1260.87 1372.68 1257.6 1368.65 1257.6C1364.62 1257.6 1361.35 1260.87 1361.35 1264.9C1361.35 1268.93 1364.62 1272.2 1368.65 1272.2Z" stroke="white" stroke-width="6" stroke-miterlimit="10" stroke-linecap="round"/>
<path d="M1294.25 1262.3C1298.28 1262.3 1301.55 1259.03 1301.55 1255C1301.55 1250.97 1298.28 1247.7 1294.25 1247.7C1290.22 1247.7 1286.95 1250.97 1286.95 1255C1286.95 1259.03 1290.22 1262.3 1294.25 1262.3Z" stroke="white" stroke-width="6" stroke-miterlimit="10" stroke-linecap="round"/>
<path d="M1314.95 1323.15C1318.98 1323.15 1322.25 1319.88 1322.25 1315.85C1322.25 1311.82 1318.98 1308.55 1314.95 1308.55C1310.92 1308.55 1307.65 1311.82 1307.65 1315.85C1307.65 1319.88 1310.92 1323.15 1314.95 1323.15Z" stroke="white" stroke-width="6" stroke-miterlimit="10" stroke-linecap="round"/>
<path d="M1349 1308.55C1353.03 1308.55 1356.3 1305.28 1356.3 1301.25C1356.3 1297.22 1353.03 1293.95 1349 1293.95C1344.97 1293.95 1341.7 1297.22 1341.7 1301.25C1341.7 1305.28 1344.97 1308.55 1349 1308.55Z" stroke="white" stroke-width="6" stroke-miterlimit="10" stroke-linecap="round"/>
<path d="M1422.3 1329L1374.1 1521.75H1358.9C1358.2 1521.75 1357.55 1521.7 1356.85 1521.65C1345.35 1520.6 1335.65 1510.9 1333.2 1499.45L1295.9 1327C1337.5 1352.15 1374.1 1311.45 1374.1 1311.45L1422.3 1329Z" fill="#66B0F0"/>
<path d="M1424.75 1427.9C1434.9 1374.3 1437.7 1333.35 1420.2 1330.05C1402.7 1326.75 1371.55 1362.3 1361.4 1415.9C1351.25 1469.5 1356.55 1516.9 1374.05 1520.2C1391.55 1523.55 1414.6 1481.55 1424.75 1427.9Z" fill="white" stroke="#66B0F0" stroke-width="6" stroke-miterlimit="10" stroke-linejoin="round"/>
<path d="M1354.4 1415.05C1349.15 1442.85 1347.6 1469.7 1350.1 1490.7C1351.9 1505.8 1355.7 1516.55 1360.9 1521.75H1358.9C1358.2 1521.75 1357.55 1521.7 1356.85 1521.65C1352.15 1515.45 1348.8 1505.05 1347.1 1491.05C1344.55 1469.8 1346.1 1442.6 1351.45 1414.5C1356.5 1387.9 1366.7 1362.95 1380.25 1344.2C1388.35 1333 1396.85 1325.15 1404.6 1321.6L1409.1 1323.1C1391.25 1328.4 1364.15 1363.6 1354.4 1415.05Z" fill="white"/>
<path d="M1314.2 918.351L1542.3 894.851L1770.3 958.8L1768.35 989.1C1765.25 1036.9 1724.05 1074.1 1676.15 1074.1H1392.3L1314.2 918.351Z" fill="#FE5244"/>
<path d="M1757.3 956.601C1757.3 1000 1714 1053.1 1666.1 1053.1H1382.25" stroke="white" stroke-width="6" stroke-miterlimit="10" stroke-linecap="round" stroke-linejoin="round"/>
<path d="M1730.25 947.951C1723.15 986.7 1685.25 1028.1 1643.75 1028.1H1370.75" stroke="white" stroke-width="6" stroke-miterlimit="10" stroke-linecap="round" stroke-linejoin="round"/>
<path d="M1699.5 938.75C1687.5 971.65 1654.95 1002.6 1619.7 1002.6H1356.25" stroke="white" stroke-width="6" stroke-miterlimit="10" stroke-linecap="round" stroke-linejoin="round"/>
<path d="M1675.85 932.3C1660.1 956.25 1634.25 975.099 1606.7 975.099H1343.25" stroke="white" stroke-width="6" stroke-miterlimit="10" stroke-linecap="round" stroke-linejoin="round"/>
<path d="M1649.45 924.899C1634.3 940.15 1614.7 950.1 1594.2 950.1H1330.75" stroke="white" stroke-width="6" stroke-miterlimit="10" stroke-linecap="round" stroke-linejoin="round"/>
<path d="M1615.1 914.95C1604.4 921 1592.7 924.6 1580.7 924.6H1317.25" stroke="white" stroke-width="6" stroke-miterlimit="10" stroke-linecap="round" stroke-linejoin="round"/>
<path d="M1391.75 1074.1L1313.7 918.351" stroke="white" stroke-width="6" stroke-miterlimit="10" stroke-linecap="round" stroke-linejoin="round"/>
<path d="M1782.8 750.1C1761.3 756.2 1740.15 754.4 1737.9 747.85C1735.8 741.6 1745.3 730.9 1764.55 723.8C1765.5 723.45 1766.5 723.1 1767.5 722.75C1773.3 720.8 1779.1 719.55 1784.55 718.9C1800.7 716.85 1813.85 719.75 1815.5 724.65C1817.75 731.2 1805.55 743.65 1782.8 750.1Z" fill="white" stroke="#3FB1B5" stroke-width="6" stroke-miterlimit="10" stroke-linejoin="round"/>
<path d="M1769.2 895.9H1760.95L1739.3 749.75V749.65L1738.75 746C1739.8 739.35 1750.2 729.95 1768.55 723.85C1777.7 720.8 1786.8 719.45 1794.55 719.3L1802.45 740.95L1803.2 743L1828.2 811.55C1843.2 852.5 1812.85 895.9 1769.2 895.9Z" fill="#A0505A"/>
<path d="M1802.95 742.5C1797.7 745.8 1790.9 748.85 1782.8 751.15C1764.2 756.4 1745.35 754.25 1739.3 749.75V749.65L1738.75 746C1739.8 739.35 1750.2 729.95 1768.55 723.85C1777.7 720.8 1786.8 719.45 1794.55 719.3L1802.95 742.5Z" fill="#73325A"/>
<path d="M1501.4 775.65L1475.15 840.95C1462.2 873.2 1430.9 894.35 1396.1 894.35H1043.25V862.05C1043.25 854.25 1048.05 847.25 1055.35 844.5L1091.6 830.75C1094.9 829.5 1098.35 828.85 1101.85 828.85H1143L1375.9 805.35L1416.1 713.3L1501.4 775.65Z" fill="#A0505A"/>
<path d="M1081.25 850.6L1053.9 860.95C1048.4 863.05 1044.75 868.3 1044.75 874.2" stroke="#73325A" stroke-width="6" stroke-miterlimit="10" stroke-linecap="round"/>
<path d="M1081.25 867.1L1053.9 877.45C1048.4 879.55 1044.75 884.8 1044.75 890.7" stroke="#73325A" stroke-width="6" stroke-miterlimit="10" stroke-linecap="round"/>
<path d="M1081.25 883L1053.9 892.851" stroke="#73325A" stroke-width="6" stroke-miterlimit="10" stroke-linecap="round"/>
<path d="M1078.4 836.3C1078.4 836.3 1104 770.95 1112.2 772.05C1120.4 773.15 1089.5 832.1 1089.5 832.1L1078.4 836.3Z" fill="#FE5244"/>
<path d="M1416.1 713.35L1410.2 726.8L1485.75 814.55L1501.4 775.65L1416.1 713.35Z" fill="#73325A"/>
<path d="M1739.3 749.8L1770.3 958.8L1542.35 894.85L1501.4 775.6L1395.7 698.35L1432.8 654.15C1465.9 614.7 1514.75 591.9 1566.25 591.9H1639.5C1703.2 591.9 1761.85 626.7 1792.4 682.6L1816.15 723.7C1816.15 723.7 1809 713.2 1770.45 723.75C1736.5 733.1 1739.3 749.8 1739.3 749.8Z" fill="#3FB1B5"/>
<path d="M1501.4 774.65L1513.25 723.25" stroke="white" stroke-width="6" stroke-miterlimit="10" stroke-linecap="round" stroke-linejoin="round"/>
<path d="M1764.55 910.001L1726 670.35" stroke="white" stroke-width="6" stroke-miterlimit="10" stroke-linecap="round" stroke-linejoin="round"/>
<path d="M1542.3 893.9L1769.8 958.8" stroke="white" stroke-width="6" stroke-miterlimit="10" stroke-linecap="round" stroke-linejoin="round"/>
<path d="M1554.6 558.5V592.1L1613.9 591.6V532.3L1554.6 558.5Z" fill="#A0505A"/>
<path d="M1618.7 521.95V522.85C1618.7 531.85 1611.9 539.15 1602.9 539.15H1599.4C1597.15 548.05 1577.15 558.45 1562.95 558.45H1546.4C1528.3 558.45 1514.45 542.2 1517.4 524.3L1518.2 519.45L1513.3 516.7C1510.5 515.1 1509.7 511.45 1511.65 508.85L1522.25 494.85L1524.55 481.05C1526.4 469.7 1533.85 460.45 1543.75 455.9C1547.65 499.85 1586.45 505.05 1596.7 505.65H1602.4C1611.4 505.65 1618.7 512.95 1618.7 521.95Z" fill="#A0505A"/>
<path d="M1592.45 526.25C1592.45 519.15 1598.2 513.4 1605.3 513.4" stroke="#73325A" stroke-width="6" stroke-miterlimit="10" stroke-linecap="round"/>
<path d="M1538.25 506.1C1539.66 506.1 1540.8 503.458 1540.8 500.2C1540.8 496.942 1539.66 494.3 1538.25 494.3C1536.84 494.3 1535.7 496.942 1535.7 500.2C1535.7 503.458 1536.84 506.1 1538.25 506.1Z" fill="#73325A"/>
<path d="M1534.35 481.95C1534.35 481.95 1541.4 481.25 1548.65 491.25" stroke="#73325A" stroke-width="6" stroke-miterlimit="10" stroke-linecap="round"/>
<path d="M1596.7 505.65H1602.4C1611.4 505.65 1618.7 512.95 1618.7 521.95V522.85C1618.7 531.85 1611.9 539.15 1602.9 539.15L1599.05 541.85C1582.85 552.25 1560.45 593.15 1565.95 622.1C1572.15 654.65 1600.5 661.9 1626.7 656.9C1652.9 651.9 1672 636.65 1665.8 604.05C1665.1 600.2 1663.95 596.35 1662.5 592.55C1662.95 592.7 1663.35 592.85 1663.8 593C1695.3 601.6 1732.3 602.6 1742.5 578C1752.7 553.4 1750.4 529.05 1719.75 516.35C1701.95 508.95 1677.75 509 1659 514.1C1668.45 481.25 1651.65 444.7 1620.8 441.05C1572.35 435.3 1544.55 455.3 1543.8 455.85C1543.75 461.65 1547.7 502.8 1596.7 505.65Z" fill="#73325A"/>
<path d="M1660.25 512.95C1656.3 525.8 1648.15 539.55 1634.9 548.9C1634.9 548.9 1658.3 564.35 1663.8 593.05" stroke="white" stroke-width="6" stroke-miterlimit="10" stroke-linecap="round" stroke-linejoin="round"/>
<path d="M1673.85 511.85H1660.6V498.6C1660.6 491.65 1666.2 486.05 1673.15 486.05H1673.85C1680.8 486.05 1686.4 491.65 1686.4 498.6V499.3C1686.45 506.2 1680.8 511.85 1673.85 511.85Z" stroke="#FE5244" stroke-width="6" stroke-miterlimit="10" stroke-linejoin="round"/>
<path d="M1669 525.45L1660.5 511.95L1674 503.45C1680.75 499.2 1689.7 501.2 1693.95 507.95L1694.75 509.2C1699 515.95 1697 524.9 1690.25 529.15L1689 529.95C1682.15 534.2 1673.25 532.2 1669 525.45Z" stroke="#FE5244" stroke-width="6" stroke-miterlimit="10" stroke-linejoin="round"/>
<path d="M1590.7 549.55L1600.15 540.5L1609.4 550.95C1613.95 556.2 1613.35 564.15 1608.1 568.65L1607.55 569.1C1602.3 573.65 1594.35 573.05 1589.85 567.8L1589.4 567.25C1584.85 562.05 1585.45 554.1 1590.7 549.55Z" stroke="#FE5244" stroke-width="6" stroke-miterlimit="10" stroke-linejoin="round"/>
<path d="M1604.5 556.05L1600.25 540.7L1615.6 536.45C1623.3 534.3 1631.25 538.8 1633.4 546.5L1633.8 547.95C1635.95 555.65 1631.45 563.6 1623.75 565.75L1622.3 566.15C1614.6 568.25 1606.65 563.7 1604.5 556.05Z" stroke="#FE5244" stroke-width="6" stroke-miterlimit="10" stroke-linejoin="round"/>
<path d="M1468.05 1112.55L1380.95 1520.2" stroke="#FFCF2D" stroke-width="6" stroke-miterlimit="10" stroke-linecap="round"/>
<path d="M1690.95 1112.55L1778.05 1520.2" stroke="#FFCF2D" stroke-width="6" stroke-miterlimit="10" stroke-linecap="round"/>
<path d="M1400.25 1429.7H1757.55" stroke="#FFCF2D" stroke-width="6" stroke-miterlimit="10" stroke-linecap="round"/>
<path d="M1759.5 1112.55H1399.45C1394.9 1112.55 1391.2 1108.85 1391.2 1104.3V1082.35C1391.2 1077.8 1394.9 1074.1 1399.45 1074.1H1759.5C1764.05 1074.1 1767.75 1077.8 1767.75 1082.35V1104.3C1767.75 1108.85 1764.05 1112.55 1759.5 1112.55Z" fill="white" stroke="#66B0F0" stroke-width="6" stroke-miterlimit="10" stroke-linejoin="round"/>
</svg>
