<svg data-v-fde0c5aa="" xmlns="http://www.w3.org/2000/svg" viewBox="0 0 300 300" class="iconAbove"><!----><defs data-v-fde0c5aa=""><!----></defs><rect data-v-fde0c5aa="" fill="#0B173D" x="0" y="0" width="300px" height="300px" class="logo-background-square"></rect><defs data-v-fde0c5aa=""><!----></defs><g data-v-fde0c5aa="" id="679ed999-fd5c-4d6d-8b23-281b4931574a" stroke="none" fill="#D1A103" transform="matrix(1.2131016322070605,0,0,1.2131016322070605,-608.6943370117629,57.80973483609049)"><path d="M631.436 87.151h-.387c-4.505 0-8.17-3.665-8.17-8.17V21.019a3.172 3.172 0 0 0-3.169-3.169h-.458a3.173 3.173 0 0 0-3.169 3.169v57.963c0 4.505-3.665 8.17-8.17 8.17h-.458c-4.504 0-8.169-3.665-8.169-8.17V59.488a3.174 3.174 0 0 0-3.17-3.17h-15.059v-5h15.059c4.505 0 8.17 3.665 8.17 8.17v19.493a3.173 3.173 0 0 0 3.169 3.17h.458a3.174 3.174 0 0 0 3.17-3.17V21.019c0-4.505 3.665-8.169 8.169-8.169h.458c4.504 0 8.169 3.665 8.169 8.169v57.963a3.174 3.174 0 0 0 3.17 3.17h.387a3.174 3.174 0 0 0 3.17-3.17V21.019c0-4.505 3.665-8.169 8.169-8.169h.388c4.505 0 8.17 3.665 8.17 8.169v25.927a3.172 3.172 0 0 0 3.169 3.169h15.275v5h-15.275c-4.504 0-8.169-3.665-8.169-8.169V21.019a3.173 3.173 0 0 0-3.17-3.169h-.388a3.173 3.173 0 0 0-3.169 3.169v57.963c-.001 4.504-3.666 8.169-8.17 8.169z"></path></g><!----></svg>
